<svg width="50" height="47" viewBox="0 0 50 47" fill="none" xmlns="http://www.w3.org/2000/svg">
<path fill-rule="evenodd" clip-rule="evenodd" d="M3.125 23.5C3.125 34.8564 12.9188 44.0625 25 44.0625C37.0812 44.0625 46.875 34.8564 46.875 23.5C46.875 12.1436 37.0812 2.9375 25 2.9375C12.9188 2.9375 3.125 12.1436 3.125 23.5ZM50 23.5C50 36.4787 38.8071 47 25 47C11.1929 47 0 36.4787 0 23.5C0 10.5213 11.1929 0 25 0C38.8071 0 50 10.5213 50 23.5ZM35.9375 22.0312C36.8004 22.0312 37.5 22.6888 37.5 23.5C37.5 24.3112 36.8004 24.9687 35.9375 24.9687H17.8347L24.5424 31.2739C25.1525 31.8475 25.1525 32.7775 24.5424 33.3511C23.9322 33.9246 22.9428 33.9246 22.3326 33.3511L12.9576 24.5386C12.3475 23.965 12.3475 23.035 12.9576 22.4614L22.3326 13.6489C22.9428 13.0754 23.9322 13.0754 24.5424 13.6489C25.1525 14.2225 25.1525 15.1525 24.5424 15.7261L17.8347 22.0312H35.9375Z" fill="#CDCDCD"/>
</svg>
